<svg width="68" height="68" viewBox="0 0 68 68" fill="none" xmlns="http://www.w3.org/2000/svg">
<path d="M36.8333 17H31.1667C29.6638 17 28.2224 17.597 27.1597 18.6597C26.097 19.7224 25.5 21.1638 25.5 22.6667V68H42.5V22.6667C42.5 21.1638 41.903 19.7224 40.8403 18.6597C39.7776 17.597 38.3362 17 36.8333 17Z" fill="black"/>
<path d="M62.3333 0H56.6667C55.1638 0 53.7224 0.597022 52.6597 1.65973C51.597 2.72243 51 4.16377 51 5.66667V68H68V5.66667C68 4.16377 67.403 2.72243 66.3403 1.65973C65.2776 0.597022 63.8362 0 62.3333 0ZM62.3333 62.3333H56.6667V5.66667H62.3333V62.3333Z" fill="black"/>
<path d="M11.3333 34H5.66667C4.16377 34 2.72243 34.597 1.65973 35.6597C0.597022 36.7224 0 38.1638 0 39.6667L0 68H17V39.6667C17 38.1638 16.403 36.7224 15.3403 35.6597C14.2776 34.597 12.8362 34 11.3333 34Z" fill="black"/>
</svg>
