<svg width="68" height="68" viewBox="0 0 68 68" fill="none" xmlns="http://www.w3.org/2000/svg">
<path d="M65.1667 31.1667H53.6067C53.3859 29.6056 52.9778 28.0769 52.3912 26.6135L62.3843 20.8222C62.7183 20.6424 63.0128 20.3975 63.2504 20.1018C63.4879 19.8062 63.6637 19.4658 63.7673 19.101C63.8709 18.7361 63.9001 18.3542 63.8534 17.9778C63.8066 17.6014 63.6848 17.2383 63.495 16.9099C63.3053 16.5814 63.0516 16.2945 62.7489 16.0659C62.4462 15.8374 62.1007 15.672 61.7329 15.5794C61.3651 15.4869 60.9824 15.4692 60.6077 15.5273C60.2329 15.5854 59.8735 15.7181 59.551 15.9177L49.5493 21.7175C48.5932 20.5097 47.5008 19.4163 46.2938 18.4592L52.0908 8.45467C52.4399 7.80598 52.5226 7.04684 52.3215 6.3382C52.1203 5.62955 51.651 5.02712 51.0131 4.65863C50.3753 4.29014 49.619 4.18456 48.9046 4.36428C48.1902 4.54399 47.5739 4.99488 47.1863 5.62133L41.3865 15.6088C39.9233 15.0216 38.3945 14.6134 36.8333 14.3933V2.83333C36.8333 2.08189 36.5348 1.36122 36.0035 0.829864C35.4721 0.298511 34.7514 0 34 0C33.2486 0 32.5279 0.298511 31.9965 0.829864C31.4652 1.36122 31.1667 2.08189 31.1667 2.83333V14.3933C29.6055 14.6134 28.0767 15.0216 26.6135 15.6088L20.8222 5.61567C20.4346 4.98921 19.8183 4.53833 19.1039 4.35861C18.3895 4.17889 17.6332 4.28447 16.9954 4.65297C16.3575 5.02146 15.8882 5.62389 15.687 6.33253C15.4859 7.04118 15.5686 7.80032 15.9177 8.449L21.7147 18.4592C20.5077 19.4163 19.4153 20.5097 18.4592 21.7175L8.4575 15.9177C8.13496 15.7181 7.77565 15.5854 7.40085 15.5273C7.02605 15.4692 6.64341 15.4869 6.2756 15.5794C5.90779 15.672 5.5623 15.8374 5.25961 16.0659C4.95692 16.2945 4.70319 16.5814 4.51347 16.9099C4.32375 17.2383 4.20189 17.6014 4.15512 17.9778C4.10836 18.3542 4.13763 18.7361 4.24121 19.101C4.34479 19.4658 4.52057 19.8062 4.75813 20.1018C4.99569 20.3975 5.29018 20.6424 5.62417 20.8222L15.6088 26.6135C15.0222 28.0769 14.6141 29.6056 14.3933 31.1667H2.83333C2.08189 31.1667 1.36122 31.4652 0.829864 31.9965C0.298511 32.5279 0 33.2486 0 34C0 34.7514 0.298511 35.4721 0.829864 36.0035C1.36122 36.5348 2.08189 36.8333 2.83333 36.8333H14.3933C14.6141 38.3944 15.0222 39.9231 15.6088 41.3865L5.61567 47.1778C5.28168 47.3576 4.98719 47.6025 4.74963 47.8982C4.51207 48.1938 4.33629 48.5342 4.23271 48.899C4.12913 49.2639 4.09986 49.6458 4.14662 50.0222C4.19339 50.3986 4.31525 50.7617 4.50497 51.0901C4.69469 51.4185 4.94842 51.7055 5.25111 51.9341C5.5538 52.1626 5.89929 52.328 6.2671 52.4206C6.63491 52.5131 7.01755 52.5308 7.39235 52.4727C7.76715 52.4146 8.12646 52.2819 8.449 52.0823L18.4507 46.2825C19.4068 47.4903 20.4992 48.5837 21.7062 49.5408L15.9177 59.5453C15.5686 60.194 15.4859 60.9532 15.687 61.6618C15.8882 62.3704 16.3575 62.9729 16.9954 63.3414C17.6332 63.7099 18.3895 63.8154 19.1039 63.6357C19.8183 63.456 20.4346 63.0051 20.8222 62.3787L26.6135 52.3855C28.0768 52.9735 29.6055 53.3835 31.1667 53.6067V65.1667C31.1667 65.9181 31.4652 66.6388 31.9965 67.1701C32.5279 67.7015 33.2486 68 34 68C34.7514 68 35.4721 67.7015 36.0035 67.1701C36.5348 66.6388 36.8333 65.9181 36.8333 65.1667V53.6067C38.3943 53.3853 39.9229 52.9772 41.3865 52.3912L47.1778 62.3843C47.5654 63.0108 48.1817 63.4617 48.8961 63.6414C49.6105 63.8211 50.3668 63.7155 51.0046 63.347C51.6425 62.9785 52.1118 62.3761 52.313 61.6675C52.5141 60.9588 52.4314 60.1997 52.0823 59.551L46.2853 49.5465C47.4923 48.5893 48.5847 47.496 49.5408 46.2882L59.5425 52.088C59.865 52.2875 60.2244 52.4203 60.5991 52.4784C60.9739 52.5365 61.3566 52.5187 61.7244 52.4262C62.0922 52.3337 62.4377 52.1683 62.7404 51.9397C63.0431 51.7112 63.2968 51.4242 63.4865 51.0958C63.6763 50.7674 63.7981 50.4042 63.8449 50.0279C63.8916 49.6515 63.8624 49.2696 63.7588 48.9047C63.6552 48.5398 63.4794 48.1995 63.2419 47.9038C63.0043 47.6082 62.7098 47.3632 62.3758 47.1835L52.3827 41.3922C52.9727 39.9274 53.3836 38.3967 53.6067 36.8333H65.1667C65.9181 36.8333 66.6388 36.5348 67.1701 36.0035C67.7015 35.4721 68 34.7514 68 34C68 33.2486 67.7015 32.5279 67.1701 31.9965C66.6388 31.4652 65.9181 31.1667 65.1667 31.1667Z" fill="black"/>
</svg>
