<svg width="68" height="68" viewBox="0 0 68 68" fill="none" xmlns="http://www.w3.org/2000/svg">
<path d="M68 34C68 29.3855 65.9753 25.0321 62.5413 22.2963C62.9383 17.6932 61.2935 13.1837 58.0325 9.9172C54.7714 6.6564 50.2768 5.01323 45.9041 5.5042C40.193 -1.74959 27.8548 -1.88581 22.277 5.40487C17.6718 4.9962 13.1715 6.65073 9.91047 9.9172C6.65223 13.1808 5.00752 17.6932 5.50094 22.0551C-1.74714 27.7707 -1.88609 40.1186 5.40169 45.7037C5.00469 50.3068 6.6494 54.8163 9.91047 58.0828C13.1715 61.3436 17.6718 62.9924 22.0388 62.4958C27.7499 69.7496 40.0881 69.8858 45.6659 62.5951C50.2598 62.9811 54.7686 61.3493 58.0325 58.0828C61.2907 54.8192 62.9354 50.3068 62.442 45.9449C65.9753 42.9707 68 38.6173 68 34.0028V34ZM49.6813 29.9304L36.2429 42.8941C32.9449 46.189 27.5486 46.1606 24.2507 42.8572L17.8646 36.9202C16.719 35.8532 16.651 34.0568 17.7172 32.9102C18.7862 31.7609 20.5841 31.6984 21.724 32.7627L28.1838 38.7706C29.3691 39.954 31.1613 39.9512 32.2672 38.8415L45.7425 25.8409C46.8711 24.7568 48.6661 24.788 49.7522 25.9147C50.8411 27.0414 50.8071 28.8406 49.6813 29.9275V29.9304Z" fill="black"/>
</svg>
